# xmcd CD Database Entry
#
# Track frame offsets:
# 150
# 28690
# 56930
# 83487
# 93607
# 122042
# 154532
# 177567
# 204817
# 213897
# 240505
# 256877
# 283100
# 297330
# 322672
# 348122
#
# Disc length: 4726 seconds
#
# Revision: 3
# Processed by: cddbd v1.5.2PL0 Copyright (c) Steve Scherf et al.
# Submitted via: jack 3.1.1
#
DISCID=db127410
DTITLE=Various Artist - music should hurt
DYEAR=1996
DGENRE=
TTITLE0=Smell and Quim - Pervertual Reality
TTITLE1=Merzbow - Pretties for you
TTITLE2=K2 - Desmoplakin for Crash
TTITLE3=Bacillus - Progressive areas of Necrosis
TTITLE4=Daniel Menche - Shafted Stingray
TTITLE5=OVMN - Storm Leather Kaori Candyland
TTITLE6=Evil Moisture - Compressed Air Hostess Scud S
TTITLE7=Third Organ - Yagamania part 7
TTITLE8=Bacillus - Subcutaneous Infection
TTITLE9=Hyper Ventilation - Catalepsy
TTITLE10=Iugula Thor - Physical Abuse
TTITLE11=Pain Jerk - Hurtness
TTITLE12=Macro Beaulieau - That didn't hurt one little bit
TTITLE13=Killer Bug - Brain Police besieged Parkside Corp.
TTITLE14=Hanged Mans Orgasm - Strangulation Fetish
TTITLE15=Macro Beaulieau - That didn't hurt one little bit (reprise)
EXTD=The track listing on the CD doesn't appear to match exactly s
EXTD=o I've made a best-effort guess. I mean it's not like most pe
EXTD=ople can tell one noise band from another anyway. Well, merzb
EXTD=ow's pretty obvious. But most are talentless rehashes anyway
EXTD=so how do you tell them apart. I mean really, what's the poin
EXTD=t in getting your track on a compilation album if nobody can
EXTD=tell which band it's by?
EXTT0=
EXTT1=
EXTT2=
EXTT3=
EXTT4=
EXTT5=(She crushes my mind]\n
EXTT6=
EXTT7=
EXTT8=
EXTT9=
EXTT10=
EXTT11=
EXTT12=
EXTT13=
EXTT14=
EXTT15=
PLAYORDER=
